<?xml version="1.0"?>
<svg xmlns="http://www.w3.org/2000/svg" xmlns:xlink="http://www.w3.org/1999/xlink" xmlns:svgjs="http://svgjs.com/svgjs" version="1.1" width="512" height="512" x="0" y="0" viewBox="0 0 511.995 511.995" style="enable-background:new 0 0 512 512" xml:space="preserve" class=""><g transform="matrix(0.11000000000000001,0,0,0.10999999999999999,457.83815986633294,452.83792221069336)">
<path xmlns="http://www.w3.org/2000/svg" style="" d="M250.236,0c0,0,55.84,131.616,0,159.536s-79.768-95.72-79.768-95.72s-55.84,15.952-47.864,79.768  s35.896,101.704,15.952,127.624s-33.904,0-47.864-47.864s-63.816-63.816-63.816-63.816S52.804,243.28,58.78,303.112  s-2.976,187.456,184.48,207.392s275.144-164.736,230.328-271.208C442.26,164.864,457.636,79.76,457.636,79.76  s-54.328,24.832-63.816,79.768c-10.024,58.04-7.976,107.688-31.904,63.816C337.98,179.472,395.812,27.92,250.236,0z" fill="#e21b1b" data-original="#e21b1b" class=""/>
<g xmlns="http://www.w3.org/2000/svg">
</g>
<g xmlns="http://www.w3.org/2000/svg">
</g>
<g xmlns="http://www.w3.org/2000/svg">
</g>
<g xmlns="http://www.w3.org/2000/svg">
</g>
<g xmlns="http://www.w3.org/2000/svg">
</g>
<g xmlns="http://www.w3.org/2000/svg">
</g>
<g xmlns="http://www.w3.org/2000/svg">
</g>
<g xmlns="http://www.w3.org/2000/svg">
</g>
<g xmlns="http://www.w3.org/2000/svg">
</g>
<g xmlns="http://www.w3.org/2000/svg">
</g>
<g xmlns="http://www.w3.org/2000/svg">
</g>
<g xmlns="http://www.w3.org/2000/svg">
</g>
<g xmlns="http://www.w3.org/2000/svg">
</g>
<g xmlns="http://www.w3.org/2000/svg">
</g>
<g xmlns="http://www.w3.org/2000/svg">
</g>
</g></svg>
